<svg width="40" height="40" viewBox="0 0 40 40" fill="none" xmlns="http://www.w3.org/2000/svg">
<path d="M19.1167 6.40186C19.3511 6.16777 19.6688 6.03629 20.0001 6.03629C20.3313 6.03629 20.649 6.16777 20.8834 6.40186L35.3667 20.8852C35.4821 21.0045 35.6201 21.0997 35.7726 21.1651C35.9251 21.2306 36.0892 21.265 36.2552 21.2663C36.4211 21.2677 36.5857 21.236 36.7393 21.1731C36.8929 21.1101 37.0324 21.0173 37.1497 20.8998C37.267 20.7824 37.3598 20.6428 37.4226 20.4892C37.4853 20.3355 37.5169 20.1709 37.5154 20.0049C37.5138 19.8389 37.4793 19.6749 37.4137 19.5225C37.3481 19.37 37.2528 19.2321 37.1334 19.1169L22.6517 4.63352C22.3035 4.2853 21.8901 4.00907 21.4351 3.82061C20.9802 3.63215 20.4925 3.53516 20.0001 3.53516C19.5076 3.53516 19.02 3.63215 18.565 3.82061C18.11 4.00907 17.6966 4.2853 17.3484 4.63352L2.86507 19.1169C2.74574 19.2322 2.65057 19.3702 2.58514 19.5227C2.5197 19.6753 2.48529 19.8393 2.48393 20.0053C2.48257 20.1713 2.51427 20.3358 2.57719 20.4894C2.64012 20.643 2.733 20.7825 2.85042 20.8998C2.96784 21.0172 3.10745 21.1099 3.2611 21.1727C3.41475 21.2355 3.57936 21.267 3.74533 21.2655C3.91131 21.264 4.07531 21.2294 4.22779 21.1638C4.38026 21.0983 4.51815 21.003 4.6334 20.8835L19.1167 6.40186Z" fill="#E7C9A5"/>
<path d="M20 9.05322L33.5983 22.6516C33.6483 22.7016 33.6983 22.7482 33.75 22.7949V33.1249C33.75 34.8499 32.35 36.2499 30.625 36.2499H25C24.6685 36.2499 24.3505 36.1182 24.1161 35.8838C23.8817 35.6494 23.75 35.3314 23.75 34.9999V27.4999C23.75 27.1684 23.6183 26.8504 23.3839 26.616C23.1495 26.3816 22.8315 26.2499 22.5 26.2499H17.5C17.1685 26.2499 16.8505 26.3816 16.6161 26.616C16.3817 26.8504 16.25 27.1684 16.25 27.4999V34.9999C16.25 35.3314 16.1183 35.6494 15.8839 35.8838C15.6495 36.1182 15.3315 36.2499 15 36.2499H9.375C8.5462 36.2499 7.75134 35.9207 7.16529 35.3346C6.57924 34.7485 6.25 33.9537 6.25 33.1249V22.7949C6.30185 22.7485 6.35243 22.7007 6.40167 22.6516L20 9.05322Z" fill="#E7C9A5"/>
</svg>
