<svg width="16" height="16" viewBox="0 0 16 16" fill="none" xmlns="http://www.w3.org/2000/svg">
<path d="M6.00655 14.1665C5.87988 14.1665 5.75321 14.1198 5.65321 14.0198L2.31321 10.6798C2.11988 10.4865 2.11988 10.1665 2.31321 9.97312C2.50655 9.77979 2.82655 9.77979 3.01988 9.97312L6.35988 13.3131C6.55321 13.5065 6.55321 13.8265 6.35988 14.0198C6.25988 14.1131 6.13321 14.1665 6.00655 14.1665Z" fill="#3A354E"/>
<path d="M6.00659 14.1668C5.73326 14.1668 5.50659 13.9402 5.50659 13.6668V2.3335C5.50659 2.06016 5.73326 1.8335 6.00659 1.8335C6.27993 1.8335 6.50659 2.06016 6.50659 2.3335V13.6668C6.50659 13.9402 6.27993 14.1668 6.00659 14.1668Z" fill="#3A354E"/>
<path d="M13.34 6.17329C13.2134 6.17329 13.0867 6.12663 12.9867 6.02663L9.64671 2.68663C9.45338 2.49329 9.45338 2.17329 9.64671 1.97996C9.84004 1.78663 10.16 1.78663 10.3534 1.97996L13.6934 5.31996C13.8867 5.51329 13.8867 5.83329 13.6934 6.02663C13.5934 6.12663 13.4667 6.17329 13.34 6.17329Z" fill="#3A354E"/>
<path d="M9.99341 14.1668C9.72007 14.1668 9.49341 13.9402 9.49341 13.6668V2.3335C9.49341 2.06016 9.72007 1.8335 9.99341 1.8335C10.2667 1.8335 10.4934 2.06016 10.4934 2.3335V13.6668C10.4934 13.9402 10.2734 14.1668 9.99341 14.1668Z" fill="#3A354E"/>
</svg>
