<svg width="40" height="40" viewBox="0 0 40 40" fill="none" xmlns="http://www.w3.org/2000/svg">
<rect width="40" height="40" rx="20" transform="matrix(-1 0 0 1 40 0)" fill="#D2B591"/>
<path opacity="0.5" d="M20 16.4322V29.4482C25.8804 26.2107 30.8357 28.325 31.8929 29.5143V16.4322C27.7304 14.0536 21.0792 14.428 20 16.4322Z" fill="#DBE5FF"/>
<path d="M20 16.4322V29.4483C23.7661 24.559 28.5232 25.7483 30.0429 26.0126V13.0626C26.5411 11.9394 21.0792 14.4281 20 16.4322Z" fill="#F0F4FF"/>
<path d="M20 16.2833V29.2501C22.0271 24.5768 27.3891 24.116 28.4571 24.1819V10.491C25.9462 10.333 20.5231 13.8479 20 16.2833Z" fill="url(#paint0_linear_5610_7441)"/>
<path opacity="0.5" d="M20 16.4322V29.4482C14.1196 26.2107 9.16429 28.325 8.10714 29.5143V16.4322C12.2696 14.0536 18.9208 14.428 20 16.4322Z" fill="#DBE5FF"/>
<path d="M20 16.4322V29.4483C16.2339 24.559 11.4768 25.7483 9.95714 26.0126V13.0626C13.4589 11.9394 18.9208 14.4281 20 16.4322Z" fill="#F0F4FF"/>
<path d="M20 16.2833V29.2501C17.9729 24.5768 12.6109 24.116 11.5429 24.1819V10.491C14.0538 10.333 19.4769 13.8479 20 16.2833Z" fill="url(#paint1_linear_5610_7441)"/>
<defs>
<linearGradient id="paint0_linear_5610_7441" x1="20" y1="21.6519" x2="28.4571" y2="21.6519" gradientUnits="userSpaceOnUse">
<stop stop-color="#FAFBFF" stop-opacity="0.49"/>
<stop offset="1" stop-color="#FAFBFF"/>
</linearGradient>
<linearGradient id="paint1_linear_5610_7441" x1="20" y1="21.6519" x2="11.5429" y2="21.6519" gradientUnits="userSpaceOnUse">
<stop stop-color="#FAFBFF" stop-opacity="0.49"/>
<stop offset="1" stop-color="#FAFBFF"/>
</linearGradient>
</defs>
</svg>
