<svg width="110" height="110" viewBox="0 0 110 110" fill="none" xmlns="http://www.w3.org/2000/svg">
<circle opacity="0.1" cx="55" cy="55" r="55" fill="#42FF99"/>
<circle cx="55" cy="55" r="40" fill="#42FF99"/>
<path d="M55 67.5999C54.625 67.5999 54.25 67.5124 53.9375 67.3374C51.6 66.0624 47.4875 64.7124 44.9125 64.3749L44.55 64.3249C42.9125 64.1249 41.5625 62.5874 41.5625 60.9249V45.8249C41.5625 44.8374 41.95 43.9374 42.6625 43.2874C43.375 42.6374 44.3 42.3249 45.275 42.4124C48.025 42.6249 52.175 43.9999 54.525 45.4749L54.825 45.6499C54.9125 45.6999 55.1 45.6999 55.175 45.6624L55.375 45.5374C57.725 44.0624 61.875 42.6624 64.6375 42.4249C64.6625 42.4249 64.7625 42.4249 64.7875 42.4249C65.7 42.3374 66.6375 42.6624 67.3375 43.3124C68.05 43.9624 68.4375 44.8624 68.4375 45.8499V60.9374C68.4375 62.6124 67.0875 64.1374 65.4375 64.3374L65.025 64.3874C62.45 64.7249 58.325 66.0874 56.0375 67.3499C55.7375 67.5249 55.375 67.5999 55 67.5999ZM44.975 44.2749C44.575 44.2749 44.2125 44.4124 43.925 44.6749C43.6125 44.9624 43.4375 45.3749 43.4375 45.8249V60.9249C43.4375 61.6624 44.075 62.3749 44.7875 62.4749L45.1625 62.5249C47.975 62.8999 52.2875 64.3124 54.7875 65.6749C54.9 65.7249 55.0625 65.7374 55.125 65.7124C57.625 64.3249 61.9625 62.8999 64.7875 62.5249L65.2125 62.4749C65.925 62.3874 66.5625 61.6624 66.5625 60.9249V45.8374C66.5625 45.3749 66.3875 44.9749 66.075 44.6749C65.75 44.3874 65.3375 44.2499 64.875 44.2749C64.85 44.2749 64.75 44.2749 64.725 44.2749C62.3375 44.4874 58.4875 45.7749 56.3875 47.0874L56.1875 47.2249C55.5 47.6499 54.525 47.6499 53.8625 47.2374L53.5625 47.0624C51.425 45.7499 47.575 44.4749 45.125 44.2749C45.075 44.2749 45.025 44.2749 44.975 44.2749Z" fill="#14171C"/>
<path d="M55 66.5498C54.4875 66.5498 54.0625 66.1248 54.0625 65.6123V46.8623C54.0625 46.3498 54.4875 45.9248 55 45.9248C55.5125 45.9248 55.9375 46.3498 55.9375 46.8623V65.6123C55.9375 66.1373 55.5125 66.5498 55 66.5498Z" fill="#14171C"/>
<path d="M49.6875 51.5498H46.875C46.3625 51.5498 45.9375 51.1248 45.9375 50.6123C45.9375 50.0998 46.3625 49.6748 46.875 49.6748H49.6875C50.2 49.6748 50.625 50.0998 50.625 50.6123C50.625 51.1248 50.2 51.5498 49.6875 51.5498Z" fill="#14171C"/>
<path d="M50.625 55.2998H46.875C46.3625 55.2998 45.9375 54.8748 45.9375 54.3623C45.9375 53.8498 46.3625 53.4248 46.875 53.4248H50.625C51.1375 53.4248 51.5625 53.8498 51.5625 54.3623C51.5625 54.8748 51.1375 55.2998 50.625 55.2998Z" fill="#14171C"/>
</svg>
