<svg width="110" height="110" viewBox="0 0 110 110" fill="none" xmlns="http://www.w3.org/2000/svg">
<circle opacity="0.1" cx="55" cy="55" r="55" fill="#42FF99"/>
<circle cx="55" cy="55" r="40" fill="#42FF99"/>
<path d="M55.0002 68.4374C54.1627 68.4374 53.3127 68.2249 52.5627 67.7874L45.1377 63.4999C43.6377 62.6249 42.7002 61.0124 42.7002 59.2749V50.7249C42.7002 48.9874 43.6377 47.3749 45.1377 46.4999L52.5627 42.2124C54.0627 41.3374 55.9252 41.3374 57.4377 42.2124L64.8627 46.4999C66.3627 47.3749 67.3002 48.9874 67.3002 50.7249V59.2749C67.3002 61.0124 66.3627 62.6249 64.8627 63.4999L57.4377 67.7874C56.6877 68.2249 55.8377 68.4374 55.0002 68.4374ZM55.0002 43.4374C54.4877 43.4374 53.9627 43.5749 53.5002 43.8374L46.0752 48.1249C45.1502 48.6624 44.5752 49.6499 44.5752 50.7249V59.2749C44.5752 60.3374 45.1502 61.3374 46.0752 61.8749L53.5002 66.1624C54.4252 66.6999 55.5752 66.6999 56.5002 66.1624L63.9252 61.8749C64.8502 61.3374 65.4252 60.3499 65.4252 59.2749V50.7249C65.4252 49.6624 64.8502 48.6624 63.9252 48.1249L56.5002 43.8374C56.0377 43.5749 55.5127 43.4374 55.0002 43.4374Z" fill="#14171C"/>
<path d="M54.9999 54.6878C52.8749 54.6878 51.1499 52.9627 51.1499 50.8377C51.1499 48.7127 52.8749 46.9878 54.9999 46.9878C57.1249 46.9878 58.8499 48.7127 58.8499 50.8377C58.8499 52.9627 57.1249 54.6878 54.9999 54.6878ZM54.9999 48.8628C53.9124 48.8628 53.0249 49.7502 53.0249 50.8377C53.0249 51.9252 53.9124 52.8128 54.9999 52.8128C56.0874 52.8128 56.9749 51.9252 56.9749 50.8377C56.9749 49.7502 56.0874 48.8628 54.9999 48.8628Z" fill="#14171C"/>
<path d="M60 61.7624C59.4875 61.7624 59.0625 61.3374 59.0625 60.8249C59.0625 59.0999 57.2375 57.6875 55 57.6875C52.7625 57.6875 50.9375 59.0999 50.9375 60.8249C50.9375 61.3374 50.5125 61.7624 50 61.7624C49.4875 61.7624 49.0625 61.3374 49.0625 60.8249C49.0625 58.0624 51.725 55.8125 55 55.8125C58.275 55.8125 60.9375 58.0624 60.9375 60.8249C60.9375 61.3374 60.5125 61.7624 60 61.7624Z" fill="#14171C"/>
</svg>
