<svg width="110" height="110" viewBox="0 0 110 110" fill="none" xmlns="http://www.w3.org/2000/svg">
<circle opacity="0.1" cx="55" cy="55" r="55" fill="#F46F70"/>
<circle cx="55" cy="55" r="40" fill="#F46F70"/>
<path d="M55.5 68.4375C48.0875 68.4375 42.0625 62.4125 42.0625 55C42.0625 47.5875 48.0875 41.5625 55.5 41.5625C62.9125 41.5625 68.9375 47.5875 68.9375 55C68.9375 62.4125 62.9125 68.4375 55.5 68.4375ZM55.5 43.4375C49.125 43.4375 43.9375 48.625 43.9375 55C43.9375 61.375 49.125 66.5625 55.5 66.5625C61.875 66.5625 67.0625 61.375 67.0625 55C67.0625 48.625 61.875 43.4375 55.5 43.4375Z" fill="white"/>
<path d="M55.5 57.1875C54.9875 57.1875 54.5625 56.7625 54.5625 56.25V50C54.5625 49.4875 54.9875 49.0625 55.5 49.0625C56.0125 49.0625 56.4375 49.4875 56.4375 50V56.25C56.4375 56.7625 56.0125 57.1875 55.5 57.1875Z" fill="white"/>
<path d="M55.5 61.2496C55.3375 61.2496 55.175 61.2121 55.025 61.1496C54.875 61.0871 54.7375 60.9996 54.6125 60.8871C54.5 60.7621 54.4125 60.6371 54.35 60.4746C54.2875 60.3246 54.25 60.1621 54.25 59.9996C54.25 59.8371 54.2875 59.6746 54.35 59.5246C54.4125 59.3746 54.5 59.2371 54.6125 59.1121C54.7375 58.9996 54.875 58.9121 55.025 58.8496C55.325 58.7246 55.675 58.7246 55.975 58.8496C56.125 58.9121 56.2625 58.9996 56.3875 59.1121C56.5 59.2371 56.5875 59.3746 56.65 59.5246C56.7125 59.6746 56.75 59.8371 56.75 59.9996C56.75 60.1621 56.7125 60.3246 56.65 60.4746C56.5875 60.6371 56.5 60.7621 56.3875 60.8871C56.2625 60.9996 56.125 61.0871 55.975 61.1496C55.825 61.2121 55.6625 61.2496 55.5 61.2496Z" fill="white"/>
</svg>
